<svg viewBox="0 0 800 600" width="800" height="600" xmlns="http://www.w3.org/2000/svg">
    <rect width="800" height="600" fill="#E7DCC9" />
    <g><rect x="0" y="0" width="145" height="145" fill="#FAF5EC" /><path d="M 0 72.5 A 72.5 72.5 0 0 1 72.5 0 L 0 0 Z" fill="#6E8B4A" /><path d="M 72.5 0 A 72.5 72.5 0 0 1 145 72.5 L 145 0 Z" fill="#6E8B4A" /><path d="M 0 72.5 A 72.5 72.5 0 0 0 72.5 145 L 0 145 Z" fill="#6E8B4A" /><path d="M 145 72.5 A 72.5 72.5 0 0 0 72.5 145 L 145 145 Z" fill="#6E8B4A" /></g><g><rect x="145" y="0" width="145" height="145" fill="#20303A" /><path d="M 145 72.5 A 72.5 72.5 0 0 1 217.5 0 L 145 0 Z" fill="#435941" /><path d="M 217.5 0 A 72.5 72.5 0 0 1 290 72.5 L 290 0 Z" fill="#435941" /><path d="M 145 72.5 A 72.5 72.5 0 0 0 217.5 145 L 145 145 Z" fill="#435941" /><path d="M 290 72.5 A 72.5 72.5 0 0 0 217.5 145 L 290 145 Z" fill="#435941" /></g><g><rect x="290" y="0" width="145" height="145" fill="#E7DCC9" /><path d="M 290 72.5 A 72.5 72.5 0 0 1 362.5 0 L 290 0 Z" fill="#bbc5a3" /><path d="M 362.5 0 A 72.5 72.5 0 0 1 435 72.5 L 435 0 Z" fill="#bbc5a3" /><path d="M 290 72.5 A 72.5 72.5 0 0 0 362.5 145 L 290 145 Z" fill="#bbc5a3" /><path d="M 435 72.5 A 72.5 72.5 0 0 0 362.5 145 L 435 145 Z" fill="#bbc5a3" /></g><g><rect x="435" y="0" width="145" height="145" fill="#6E8B4A" /><path d="M 435 72.5 A 72.5 72.5 0 0 1 507.5 0 L 435 0 Z" fill="#20303A" /><path d="M 507.5 0 A 72.5 72.5 0 0 1 580 72.5 L 580 0 Z" fill="#20303A" /><path d="M 435 72.5 A 72.5 72.5 0 0 0 507.5 145 L 435 145 Z" fill="#20303A" /><path d="M 580 72.5 A 72.5 72.5 0 0 0 507.5 145 L 580 145 Z" fill="#20303A" /></g><g><rect x="580" y="0" width="145" height="145" fill="#FAF5EC" /><path d="M 580 72.5 A 72.5 72.5 0 0 1 652.5 0 L 580 0 Z" fill="#6E8B4A" /><path d="M 652.5 0 A 72.5 72.5 0 0 1 725 72.5 L 725 0 Z" fill="#6E8B4A" /><path d="M 580 72.5 A 72.5 72.5 0 0 0 652.5 145 L 580 145 Z" fill="#6E8B4A" /><path d="M 725 72.5 A 72.5 72.5 0 0 0 652.5 145 L 725 145 Z" fill="#6E8B4A" /></g><g><rect x="725" y="0" width="145" height="145" fill="#20303A" /><path d="M 725 72.5 A 72.5 72.5 0 0 1 797.5 0 L 725 0 Z" fill="#435941" /><path d="M 797.5 0 A 72.5 72.5 0 0 1 870 72.5 L 870 0 Z" fill="#435941" /><path d="M 725 72.5 A 72.5 72.5 0 0 0 797.5 145 L 725 145 Z" fill="#435941" /><path d="M 870 72.5 A 72.5 72.5 0 0 0 797.5 145 L 870 145 Z" fill="#435941" /></g><g><rect x="870" y="0" width="145" height="145" fill="#E7DCC9" /><path d="M 870 72.5 A 72.5 72.5 0 0 1 942.5 0 L 870 0 Z" fill="#bbc5a3" /><path d="M 942.5 0 A 72.5 72.5 0 0 1 1015 72.5 L 1015 0 Z" fill="#bbc5a3" /><path d="M 870 72.5 A 72.5 72.5 0 0 0 942.5 145 L 870 145 Z" fill="#bbc5a3" /><path d="M 1015 72.5 A 72.5 72.5 0 0 0 942.5 145 L 1015 145 Z" fill="#bbc5a3" /></g><g><rect x="0" y="145" width="145" height="145" fill="#6E8B4A" /><path d="M 0 217.5 A 72.5 72.5 0 0 1 72.5 145 L 0 145 Z" fill="#20303A" /><path d="M 72.5 145 A 72.5 72.5 0 0 1 145 217.5 L 145 145 Z" fill="#20303A" /><path d="M 0 217.5 A 72.5 72.5 0 0 0 72.5 290 L 0 290 Z" fill="#20303A" /><path d="M 145 217.5 A 72.5 72.5 0 0 0 72.5 290 L 145 290 Z" fill="#20303A" /></g><g><rect x="145" y="145" width="145" height="145" fill="#FAF5EC" /><path d="M 145 217.5 A 72.5 72.5 0 0 1 217.5 145 L 145 145 Z" fill="#6E8B4A" /><path d="M 217.5 145 A 72.5 72.5 0 0 1 290 217.5 L 290 145 Z" fill="#6E8B4A" /><path d="M 145 217.5 A 72.5 72.5 0 0 0 217.5 290 L 145 290 Z" fill="#6E8B4A" /><path d="M 290 217.5 A 72.5 72.5 0 0 0 217.5 290 L 290 290 Z" fill="#6E8B4A" /></g><g><rect x="290" y="145" width="145" height="145" fill="#20303A" /><path d="M 290 217.5 A 72.5 72.5 0 0 1 362.5 145 L 290 145 Z" fill="#435941" /><path d="M 362.5 145 A 72.5 72.5 0 0 1 435 217.5 L 435 145 Z" fill="#435941" /><path d="M 290 217.5 A 72.5 72.5 0 0 0 362.5 290 L 290 290 Z" fill="#435941" /><path d="M 435 217.5 A 72.5 72.5 0 0 0 362.5 290 L 435 290 Z" fill="#435941" /></g><g><rect x="435" y="145" width="145" height="145" fill="#E7DCC9" /><path d="M 435 217.5 A 72.5 72.5 0 0 1 507.5 145 L 435 145 Z" fill="#bbc5a3" /><path d="M 507.5 145 A 72.5 72.5 0 0 1 580 217.5 L 580 145 Z" fill="#bbc5a3" /><path d="M 435 217.5 A 72.5 72.5 0 0 0 507.5 290 L 435 290 Z" fill="#bbc5a3" /><path d="M 580 217.5 A 72.5 72.5 0 0 0 507.5 290 L 580 290 Z" fill="#bbc5a3" /></g><g><rect x="580" y="145" width="145" height="145" fill="#6E8B4A" /><path d="M 580 217.5 A 72.5 72.5 0 0 1 652.5 145 L 580 145 Z" fill="#20303A" /><path d="M 652.5 145 A 72.5 72.5 0 0 1 725 217.5 L 725 145 Z" fill="#20303A" /><path d="M 580 217.5 A 72.5 72.5 0 0 0 652.5 290 L 580 290 Z" fill="#20303A" /><path d="M 725 217.5 A 72.5 72.5 0 0 0 652.5 290 L 725 290 Z" fill="#20303A" /></g><g><rect x="725" y="145" width="145" height="145" fill="#FAF5EC" /><path d="M 725 217.5 A 72.5 72.5 0 0 1 797.5 145 L 725 145 Z" fill="#6E8B4A" /><path d="M 797.5 145 A 72.5 72.5 0 0 1 870 217.5 L 870 145 Z" fill="#6E8B4A" /><path d="M 725 217.5 A 72.5 72.5 0 0 0 797.5 290 L 725 290 Z" fill="#6E8B4A" /><path d="M 870 217.5 A 72.5 72.5 0 0 0 797.5 290 L 870 290 Z" fill="#6E8B4A" /></g><g><rect x="870" y="145" width="145" height="145" fill="#20303A" /><path d="M 870 217.5 A 72.5 72.5 0 0 1 942.5 145 L 870 145 Z" fill="#435941" /><path d="M 942.5 145 A 72.5 72.5 0 0 1 1015 217.5 L 1015 145 Z" fill="#435941" /><path d="M 870 217.5 A 72.5 72.5 0 0 0 942.5 290 L 870 290 Z" fill="#435941" /><path d="M 1015 217.5 A 72.5 72.5 0 0 0 942.5 290 L 1015 290 Z" fill="#435941" /></g><g><rect x="0" y="290" width="145" height="145" fill="#E7DCC9" /><path d="M 0 362.5 A 72.5 72.5 0 0 1 72.5 290 L 0 290 Z" fill="#bbc5a3" /><path d="M 72.5 290 A 72.5 72.5 0 0 1 145 362.5 L 145 290 Z" fill="#bbc5a3" /><path d="M 0 362.5 A 72.5 72.5 0 0 0 72.5 435 L 0 435 Z" fill="#bbc5a3" /><path d="M 145 362.5 A 72.5 72.5 0 0 0 72.5 435 L 145 435 Z" fill="#bbc5a3" /></g><g><rect x="145" y="290" width="145" height="145" fill="#6E8B4A" /><path d="M 145 362.5 A 72.5 72.5 0 0 1 217.5 290 L 145 290 Z" fill="#20303A" /><path d="M 217.5 290 A 72.5 72.5 0 0 1 290 362.5 L 290 290 Z" fill="#20303A" /><path d="M 145 362.5 A 72.5 72.5 0 0 0 217.5 435 L 145 435 Z" fill="#20303A" /><path d="M 290 362.5 A 72.5 72.5 0 0 0 217.5 435 L 290 435 Z" fill="#20303A" /></g><g><rect x="290" y="290" width="145" height="145" fill="#FAF5EC" /><path d="M 290 362.5 A 72.5 72.5 0 0 1 362.5 290 L 290 290 Z" fill="#6E8B4A" /><path d="M 362.5 290 A 72.5 72.5 0 0 1 435 362.5 L 435 290 Z" fill="#6E8B4A" /><path d="M 290 362.5 A 72.5 72.5 0 0 0 362.5 435 L 290 435 Z" fill="#6E8B4A" /><path d="M 435 362.5 A 72.5 72.5 0 0 0 362.5 435 L 435 435 Z" fill="#6E8B4A" /></g><g><rect x="435" y="290" width="145" height="145" fill="#20303A" /><path d="M 435 362.5 A 72.5 72.5 0 0 1 507.5 290 L 435 290 Z" fill="#435941" /><path d="M 507.5 290 A 72.5 72.5 0 0 1 580 362.5 L 580 290 Z" fill="#435941" /><path d="M 435 362.5 A 72.5 72.5 0 0 0 507.5 435 L 435 435 Z" fill="#435941" /><path d="M 580 362.5 A 72.5 72.5 0 0 0 507.5 435 L 580 435 Z" fill="#435941" /></g><g><rect x="580" y="290" width="145" height="145" fill="#E7DCC9" /><path d="M 580 362.5 A 72.5 72.5 0 0 1 652.5 290 L 580 290 Z" fill="#bbc5a3" /><path d="M 652.5 290 A 72.5 72.5 0 0 1 725 362.5 L 725 290 Z" fill="#bbc5a3" /><path d="M 580 362.5 A 72.5 72.5 0 0 0 652.5 435 L 580 435 Z" fill="#bbc5a3" /><path d="M 725 362.5 A 72.5 72.5 0 0 0 652.5 435 L 725 435 Z" fill="#bbc5a3" /></g><g><rect x="725" y="290" width="145" height="145" fill="#6E8B4A" /><path d="M 725 362.5 A 72.5 72.5 0 0 1 797.5 290 L 725 290 Z" fill="#20303A" /><path d="M 797.5 290 A 72.5 72.5 0 0 1 870 362.5 L 870 290 Z" fill="#20303A" /><path d="M 725 362.5 A 72.5 72.5 0 0 0 797.5 435 L 725 435 Z" fill="#20303A" /><path d="M 870 362.5 A 72.5 72.5 0 0 0 797.5 435 L 870 435 Z" fill="#20303A" /></g><g><rect x="870" y="290" width="145" height="145" fill="#FAF5EC" /><path d="M 870 362.5 A 72.5 72.5 0 0 1 942.5 290 L 870 290 Z" fill="#6E8B4A" /><path d="M 942.5 290 A 72.5 72.5 0 0 1 1015 362.5 L 1015 290 Z" fill="#6E8B4A" /><path d="M 870 362.5 A 72.5 72.5 0 0 0 942.5 435 L 870 435 Z" fill="#6E8B4A" /><path d="M 1015 362.5 A 72.5 72.5 0 0 0 942.5 435 L 1015 435 Z" fill="#6E8B4A" /></g><g><rect x="0" y="435" width="145" height="145" fill="#20303A" /><path d="M 0 507.5 A 72.5 72.5 0 0 1 72.5 435 L 0 435 Z" fill="#435941" /><path d="M 72.5 435 A 72.5 72.5 0 0 1 145 507.5 L 145 435 Z" fill="#435941" /><path d="M 0 507.5 A 72.5 72.5 0 0 0 72.5 580 L 0 580 Z" fill="#435941" /><path d="M 145 507.5 A 72.5 72.5 0 0 0 72.5 580 L 145 580 Z" fill="#435941" /></g><g><rect x="145" y="435" width="145" height="145" fill="#E7DCC9" /><path d="M 145 507.5 A 72.5 72.5 0 0 1 217.5 435 L 145 435 Z" fill="#bbc5a3" /><path d="M 217.5 435 A 72.5 72.5 0 0 1 290 507.5 L 290 435 Z" fill="#bbc5a3" /><path d="M 145 507.5 A 72.5 72.5 0 0 0 217.5 580 L 145 580 Z" fill="#bbc5a3" /><path d="M 290 507.5 A 72.5 72.5 0 0 0 217.5 580 L 290 580 Z" fill="#bbc5a3" /></g><g><rect x="290" y="435" width="145" height="145" fill="#6E8B4A" /><path d="M 290 507.5 A 72.5 72.5 0 0 1 362.5 435 L 290 435 Z" fill="#20303A" /><path d="M 362.5 435 A 72.5 72.5 0 0 1 435 507.5 L 435 435 Z" fill="#20303A" /><path d="M 290 507.5 A 72.5 72.5 0 0 0 362.5 580 L 290 580 Z" fill="#20303A" /><path d="M 435 507.5 A 72.5 72.5 0 0 0 362.5 580 L 435 580 Z" fill="#20303A" /></g><g><rect x="435" y="435" width="145" height="145" fill="#FAF5EC" /><path d="M 435 507.5 A 72.5 72.5 0 0 1 507.5 435 L 435 435 Z" fill="#6E8B4A" /><path d="M 507.5 435 A 72.5 72.5 0 0 1 580 507.5 L 580 435 Z" fill="#6E8B4A" /><path d="M 435 507.5 A 72.5 72.5 0 0 0 507.5 580 L 435 580 Z" fill="#6E8B4A" /><path d="M 580 507.5 A 72.5 72.5 0 0 0 507.5 580 L 580 580 Z" fill="#6E8B4A" /></g><g><rect x="580" y="435" width="145" height="145" fill="#20303A" /><path d="M 580 507.5 A 72.5 72.5 0 0 1 652.5 435 L 580 435 Z" fill="#435941" /><path d="M 652.5 435 A 72.5 72.5 0 0 1 725 507.5 L 725 435 Z" fill="#435941" /><path d="M 580 507.5 A 72.5 72.5 0 0 0 652.5 580 L 580 580 Z" fill="#435941" /><path d="M 725 507.5 A 72.5 72.5 0 0 0 652.5 580 L 725 580 Z" fill="#435941" /></g><g><rect x="725" y="435" width="145" height="145" fill="#E7DCC9" /><path d="M 725 507.5 A 72.5 72.5 0 0 1 797.5 435 L 725 435 Z" fill="#bbc5a3" /><path d="M 797.5 435 A 72.5 72.5 0 0 1 870 507.5 L 870 435 Z" fill="#bbc5a3" /><path d="M 725 507.5 A 72.5 72.5 0 0 0 797.5 580 L 725 580 Z" fill="#bbc5a3" /><path d="M 870 507.5 A 72.5 72.5 0 0 0 797.5 580 L 870 580 Z" fill="#bbc5a3" /></g><g><rect x="870" y="435" width="145" height="145" fill="#6E8B4A" /><path d="M 870 507.5 A 72.5 72.5 0 0 1 942.5 435 L 870 435 Z" fill="#20303A" /><path d="M 942.5 435 A 72.5 72.5 0 0 1 1015 507.5 L 1015 435 Z" fill="#20303A" /><path d="M 870 507.5 A 72.5 72.5 0 0 0 942.5 580 L 870 580 Z" fill="#20303A" /><path d="M 1015 507.5 A 72.5 72.5 0 0 0 942.5 580 L 1015 580 Z" fill="#20303A" /></g><g><rect x="0" y="580" width="145" height="145" fill="#FAF5EC" /><path d="M 0 652.5 A 72.5 72.5 0 0 1 72.5 580 L 0 580 Z" fill="#6E8B4A" /><path d="M 72.5 580 A 72.5 72.5 0 0 1 145 652.5 L 145 580 Z" fill="#6E8B4A" /><path d="M 0 652.5 A 72.5 72.5 0 0 0 72.5 725 L 0 725 Z" fill="#6E8B4A" /><path d="M 145 652.5 A 72.5 72.5 0 0 0 72.5 725 L 145 725 Z" fill="#6E8B4A" /></g><g><rect x="145" y="580" width="145" height="145" fill="#20303A" /><path d="M 145 652.5 A 72.5 72.5 0 0 1 217.5 580 L 145 580 Z" fill="#435941" /><path d="M 217.5 580 A 72.5 72.5 0 0 1 290 652.5 L 290 580 Z" fill="#435941" /><path d="M 145 652.5 A 72.5 72.5 0 0 0 217.5 725 L 145 725 Z" fill="#435941" /><path d="M 290 652.5 A 72.5 72.5 0 0 0 217.5 725 L 290 725 Z" fill="#435941" /></g><g><rect x="290" y="580" width="145" height="145" fill="#E7DCC9" /><path d="M 290 652.5 A 72.5 72.5 0 0 1 362.5 580 L 290 580 Z" fill="#bbc5a3" /><path d="M 362.5 580 A 72.5 72.5 0 0 1 435 652.5 L 435 580 Z" fill="#bbc5a3" /><path d="M 290 652.5 A 72.5 72.5 0 0 0 362.5 725 L 290 725 Z" fill="#bbc5a3" /><path d="M 435 652.5 A 72.5 72.5 0 0 0 362.5 725 L 435 725 Z" fill="#bbc5a3" /></g><g><rect x="435" y="580" width="145" height="145" fill="#6E8B4A" /><path d="M 435 652.5 A 72.5 72.5 0 0 1 507.5 580 L 435 580 Z" fill="#20303A" /><path d="M 507.5 580 A 72.5 72.5 0 0 1 580 652.5 L 580 580 Z" fill="#20303A" /><path d="M 435 652.5 A 72.5 72.5 0 0 0 507.5 725 L 435 725 Z" fill="#20303A" /><path d="M 580 652.5 A 72.5 72.5 0 0 0 507.5 725 L 580 725 Z" fill="#20303A" /></g><g><rect x="580" y="580" width="145" height="145" fill="#FAF5EC" /><path d="M 580 652.5 A 72.5 72.5 0 0 1 652.5 580 L 580 580 Z" fill="#6E8B4A" /><path d="M 652.5 580 A 72.5 72.5 0 0 1 725 652.5 L 725 580 Z" fill="#6E8B4A" /><path d="M 580 652.5 A 72.5 72.5 0 0 0 652.5 725 L 580 725 Z" fill="#6E8B4A" /><path d="M 725 652.5 A 72.5 72.5 0 0 0 652.5 725 L 725 725 Z" fill="#6E8B4A" /></g><g><rect x="725" y="580" width="145" height="145" fill="#20303A" /><path d="M 725 652.5 A 72.5 72.5 0 0 1 797.5 580 L 725 580 Z" fill="#435941" /><path d="M 797.5 580 A 72.5 72.5 0 0 1 870 652.5 L 870 580 Z" fill="#435941" /><path d="M 725 652.5 A 72.5 72.5 0 0 0 797.5 725 L 725 725 Z" fill="#435941" /><path d="M 870 652.5 A 72.5 72.5 0 0 0 797.5 725 L 870 725 Z" fill="#435941" /></g><g><rect x="870" y="580" width="145" height="145" fill="#E7DCC9" /><path d="M 870 652.5 A 72.5 72.5 0 0 1 942.5 580 L 870 580 Z" fill="#bbc5a3" /><path d="M 942.5 580 A 72.5 72.5 0 0 1 1015 652.5 L 1015 580 Z" fill="#bbc5a3" /><path d="M 870 652.5 A 72.5 72.5 0 0 0 942.5 725 L 870 725 Z" fill="#bbc5a3" /><path d="M 1015 652.5 A 72.5 72.5 0 0 0 942.5 725 L 1015 725 Z" fill="#bbc5a3" /></g><g><rect x="0" y="725" width="145" height="145" fill="#6E8B4A" /><path d="M 0 797.5 A 72.5 72.5 0 0 1 72.5 725 L 0 725 Z" fill="#20303A" /><path d="M 72.5 725 A 72.5 72.5 0 0 1 145 797.5 L 145 725 Z" fill="#20303A" /><path d="M 0 797.5 A 72.5 72.5 0 0 0 72.5 870 L 0 870 Z" fill="#20303A" /><path d="M 145 797.5 A 72.5 72.5 0 0 0 72.5 870 L 145 870 Z" fill="#20303A" /></g><g><rect x="145" y="725" width="145" height="145" fill="#FAF5EC" /><path d="M 145 797.5 A 72.5 72.5 0 0 1 217.5 725 L 145 725 Z" fill="#6E8B4A" /><path d="M 217.5 725 A 72.5 72.5 0 0 1 290 797.5 L 290 725 Z" fill="#6E8B4A" /><path d="M 145 797.5 A 72.5 72.5 0 0 0 217.5 870 L 145 870 Z" fill="#6E8B4A" /><path d="M 290 797.5 A 72.5 72.5 0 0 0 217.5 870 L 290 870 Z" fill="#6E8B4A" /></g><g><rect x="290" y="725" width="145" height="145" fill="#20303A" /><path d="M 290 797.5 A 72.5 72.5 0 0 1 362.5 725 L 290 725 Z" fill="#435941" /><path d="M 362.5 725 A 72.5 72.5 0 0 1 435 797.5 L 435 725 Z" fill="#435941" /><path d="M 290 797.5 A 72.5 72.5 0 0 0 362.5 870 L 290 870 Z" fill="#435941" /><path d="M 435 797.5 A 72.5 72.5 0 0 0 362.5 870 L 435 870 Z" fill="#435941" /></g><g><rect x="435" y="725" width="145" height="145" fill="#E7DCC9" /><path d="M 435 797.5 A 72.5 72.5 0 0 1 507.5 725 L 435 725 Z" fill="#bbc5a3" /><path d="M 507.5 725 A 72.5 72.5 0 0 1 580 797.5 L 580 725 Z" fill="#bbc5a3" /><path d="M 435 797.5 A 72.5 72.5 0 0 0 507.5 870 L 435 870 Z" fill="#bbc5a3" /><path d="M 580 797.5 A 72.5 72.5 0 0 0 507.5 870 L 580 870 Z" fill="#bbc5a3" /></g><g><rect x="580" y="725" width="145" height="145" fill="#6E8B4A" /><path d="M 580 797.5 A 72.5 72.5 0 0 1 652.5 725 L 580 725 Z" fill="#20303A" /><path d="M 652.5 725 A 72.5 72.5 0 0 1 725 797.5 L 725 725 Z" fill="#20303A" /><path d="M 580 797.5 A 72.5 72.5 0 0 0 652.5 870 L 580 870 Z" fill="#20303A" /><path d="M 725 797.5 A 72.5 72.5 0 0 0 652.5 870 L 725 870 Z" fill="#20303A" /></g><g><rect x="725" y="725" width="145" height="145" fill="#FAF5EC" /><path d="M 725 797.5 A 72.5 72.5 0 0 1 797.5 725 L 725 725 Z" fill="#6E8B4A" /><path d="M 797.5 725 A 72.5 72.5 0 0 1 870 797.5 L 870 725 Z" fill="#6E8B4A" /><path d="M 725 797.5 A 72.5 72.5 0 0 0 797.5 870 L 725 870 Z" fill="#6E8B4A" /><path d="M 870 797.5 A 72.5 72.5 0 0 0 797.5 870 L 870 870 Z" fill="#6E8B4A" /></g><g><rect x="870" y="725" width="145" height="145" fill="#20303A" /><path d="M 870 797.5 A 72.5 72.5 0 0 1 942.5 725 L 870 725 Z" fill="#435941" /><path d="M 942.5 725 A 72.5 72.5 0 0 1 1015 797.5 L 1015 725 Z" fill="#435941" /><path d="M 870 797.5 A 72.5 72.5 0 0 0 942.5 870 L 870 870 Z" fill="#435941" /><path d="M 1015 797.5 A 72.5 72.5 0 0 0 942.5 870 L 1015 870 Z" fill="#435941" /></g>
    
    <defs>
      <linearGradient id="scrim" x1="0" y1="0" x2="0" y2="1">
        <stop offset="0%" stop-color="#20303A" stop-opacity="0" />
        <stop offset="30%" stop-color="#20303A" stop-opacity="0.78" />
        <stop offset="70%" stop-color="#20303A" stop-opacity="0.78" />
        <stop offset="100%" stop-color="#20303A" stop-opacity="0" />
      </linearGradient>
    </defs>
    <rect x="0" y="225" width="800" height="150" fill="url(#scrim)" />
    <text
      x="400" y="315"
      text-anchor="middle"
      font-family="Inter, ui-sans-serif, system-ui, -apple-system, 'Segoe UI', sans-serif"
      font-size="42" font-weight="700" fill="#fffdfa"
      style="letter-spacing: 0.01em;"
    >Quilt Patterns</text>
  
  </svg>