<svg viewBox="0 0 800 600" width="800" height="600" xmlns="http://www.w3.org/2000/svg">
    <rect width="800" height="600" fill="#E7DCC9" />
    <g><rect x="0" y="0" width="190" height="190" fill="#FAF5EC" /><rect x="0" y="0" width="190" height="21.11111111111111" fill="#8A6A3D" /><rect x="168.88888888888889" y="21.11111111111111" width="21.11111111111111" height="168.88888888888889" fill="#8A6A3D" /><rect x="0" y="168.88888888888889" width="168.88888888888889" height="21.11111111111111" fill="#FAF5EC" /><rect x="0" y="21.11111111111111" width="21.11111111111111" height="147.77777777777777" fill="#FAF5EC" /><rect x="21.11111111111111" y="21.11111111111111" width="147.77777777777777" height="21.11111111111111" fill="#FAF5EC" /><rect x="147.77777777777777" y="42.22222222222222" width="21.11111111111111" height="126.66666666666666" fill="#FAF5EC" /><rect x="21.11111111111111" y="147.77777777777777" width="126.66666666666666" height="21.11111111111111" fill="#8A6A3D" /><rect x="21.11111111111111" y="42.22222222222222" width="21.11111111111111" height="105.55555555555554" fill="#8A6A3D" /><rect x="42.22222222222222" y="42.22222222222222" width="105.55555555555554" height="21.11111111111111" fill="#8A6A3D" /><rect x="126.66666666666666" y="63.33333333333333" width="21.11111111111111" height="84.44444444444444" fill="#8A6A3D" /><rect x="42.22222222222222" y="126.66666666666666" width="84.44444444444443" height="21.11111111111111" fill="#FAF5EC" /><rect x="42.22222222222222" y="63.33333333333333" width="21.11111111111111" height="63.33333333333333" fill="#FAF5EC" /><rect x="63.33333333333333" y="63.33333333333333" width="63.33333333333333" height="21.11111111111111" fill="#FAF5EC" /><rect x="105.55555555555554" y="84.44444444444444" width="21.11111111111111" height="42.222222222222214" fill="#FAF5EC" /><rect x="63.33333333333333" y="105.55555555555554" width="42.222222222222214" height="21.11111111111111" fill="#8A6A3D" /><rect x="63.33333333333333" y="84.44444444444444" width="21.11111111111111" height="21.1111111111111" fill="#8A6A3D" /><rect x="84.44444444444444" y="84.44444444444444" width="21.1111111111111" height="21.1111111111111" fill="#8A6A3D" /></g><g><rect x="190" y="0" width="190" height="190" fill="#20303A" /><rect x="190" y="0" width="190" height="21.11111111111111" fill="#504a3b" /><rect x="358.8888888888889" y="21.11111111111111" width="21.11111111111111" height="168.88888888888889" fill="#504a3b" /><rect x="190" y="168.88888888888889" width="168.8888888888889" height="21.11111111111111" fill="#20303A" /><rect x="190" y="21.11111111111111" width="21.11111111111111" height="147.77777777777777" fill="#20303A" /><rect x="211.11111111111111" y="21.11111111111111" width="147.7777777777778" height="21.11111111111111" fill="#20303A" /><rect x="337.7777777777778" y="42.22222222222222" width="21.11111111111111" height="126.66666666666666" fill="#20303A" /><rect x="211.11111111111111" y="147.77777777777777" width="126.66666666666671" height="21.11111111111111" fill="#504a3b" /><rect x="211.11111111111111" y="42.22222222222222" width="21.11111111111111" height="105.55555555555554" fill="#504a3b" /><rect x="232.22222222222223" y="42.22222222222222" width="105.5555555555556" height="21.11111111111111" fill="#504a3b" /><rect x="316.66666666666674" y="63.33333333333333" width="21.11111111111111" height="84.44444444444444" fill="#504a3b" /><rect x="232.22222222222223" y="126.66666666666666" width="84.44444444444451" height="21.11111111111111" fill="#20303A" /><rect x="232.22222222222223" y="63.33333333333333" width="21.11111111111111" height="63.33333333333333" fill="#20303A" /><rect x="253.33333333333334" y="63.33333333333333" width="63.3333333333334" height="21.11111111111111" fill="#20303A" /><rect x="295.55555555555566" y="84.44444444444444" width="21.11111111111111" height="42.222222222222214" fill="#20303A" /><rect x="253.33333333333334" y="105.55555555555554" width="42.222222222222314" height="21.11111111111111" fill="#504a3b" /><rect x="253.33333333333334" y="84.44444444444444" width="21.11111111111111" height="21.1111111111111" fill="#504a3b" /><rect x="274.44444444444446" y="84.44444444444444" width="21.1111111111112" height="21.1111111111111" fill="#504a3b" /></g><g><rect x="380" y="0" width="190" height="190" fill="#E7DCC9" /><rect x="380" y="0" width="190" height="21.11111111111111" fill="#c8b69d" /><rect x="548.8888888888889" y="21.11111111111111" width="21.11111111111111" height="168.88888888888889" fill="#c8b69d" /><rect x="380" y="168.88888888888889" width="168.8888888888889" height="21.11111111111111" fill="#E7DCC9" /><rect x="380" y="21.11111111111111" width="21.11111111111111" height="147.77777777777777" fill="#E7DCC9" /><rect x="401.1111111111111" y="21.11111111111111" width="147.77777777777783" height="21.11111111111111" fill="#E7DCC9" /><rect x="527.7777777777778" y="42.22222222222222" width="21.11111111111111" height="126.66666666666666" fill="#E7DCC9" /><rect x="401.1111111111111" y="147.77777777777777" width="126.66666666666674" height="21.11111111111111" fill="#c8b69d" /><rect x="401.1111111111111" y="42.22222222222222" width="21.11111111111111" height="105.55555555555554" fill="#c8b69d" /><rect x="422.2222222222222" y="42.22222222222222" width="105.55555555555566" height="21.11111111111111" fill="#c8b69d" /><rect x="506.66666666666674" y="63.33333333333333" width="21.11111111111111" height="84.44444444444444" fill="#c8b69d" /><rect x="422.2222222222222" y="126.66666666666666" width="84.44444444444457" height="21.11111111111111" fill="#E7DCC9" /><rect x="422.2222222222222" y="63.33333333333333" width="21.11111111111111" height="63.33333333333333" fill="#E7DCC9" /><rect x="443.33333333333326" y="63.33333333333333" width="63.333333333333485" height="21.11111111111111" fill="#E7DCC9" /><rect x="485.55555555555566" y="84.44444444444444" width="21.11111111111111" height="42.222222222222214" fill="#E7DCC9" /><rect x="443.33333333333326" y="105.55555555555554" width="42.2222222222224" height="21.11111111111111" fill="#c8b69d" /><rect x="443.33333333333326" y="84.44444444444444" width="21.11111111111111" height="21.1111111111111" fill="#c8b69d" /><rect x="464.44444444444434" y="84.44444444444444" width="21.111111111111313" height="21.1111111111111" fill="#c8b69d" /></g><g><rect x="570" y="0" width="190" height="190" fill="#8A6A3D" /><rect x="570" y="0" width="190" height="21.11111111111111" fill="#20303A" /><rect x="738.8888888888889" y="21.11111111111111" width="21.11111111111111" height="168.88888888888889" fill="#20303A" /><rect x="570" y="168.88888888888889" width="168.8888888888889" height="21.11111111111111" fill="#8A6A3D" /><rect x="570" y="21.11111111111111" width="21.11111111111111" height="147.77777777777777" fill="#8A6A3D" /><rect x="591.1111111111111" y="21.11111111111111" width="147.77777777777783" height="21.11111111111111" fill="#8A6A3D" /><rect x="717.7777777777778" y="42.22222222222222" width="21.11111111111111" height="126.66666666666666" fill="#8A6A3D" /><rect x="591.1111111111111" y="147.77777777777777" width="126.66666666666674" height="21.11111111111111" fill="#20303A" /><rect x="591.1111111111111" y="42.22222222222222" width="21.11111111111111" height="105.55555555555554" fill="#20303A" /><rect x="612.2222222222222" y="42.22222222222222" width="105.55555555555566" height="21.11111111111111" fill="#20303A" /><rect x="696.6666666666667" y="63.33333333333333" width="21.11111111111111" height="84.44444444444444" fill="#20303A" /><rect x="612.2222222222222" y="126.66666666666666" width="84.44444444444457" height="21.11111111111111" fill="#8A6A3D" /><rect x="612.2222222222222" y="63.33333333333333" width="21.11111111111111" height="63.33333333333333" fill="#8A6A3D" /><rect x="633.3333333333333" y="63.33333333333333" width="63.333333333333485" height="21.11111111111111" fill="#8A6A3D" /><rect x="675.5555555555557" y="84.44444444444444" width="21.11111111111111" height="42.222222222222214" fill="#8A6A3D" /><rect x="633.3333333333333" y="105.55555555555554" width="42.2222222222224" height="21.11111111111111" fill="#20303A" /><rect x="633.3333333333333" y="84.44444444444444" width="21.11111111111111" height="21.1111111111111" fill="#20303A" /><rect x="654.4444444444443" y="84.44444444444444" width="21.111111111111313" height="21.1111111111111" fill="#20303A" /></g><g><rect x="760" y="0" width="190" height="190" fill="#FAF5EC" /><rect x="760" y="0" width="190" height="21.11111111111111" fill="#8A6A3D" /><rect x="928.8888888888889" y="21.11111111111111" width="21.11111111111111" height="168.88888888888889" fill="#8A6A3D" /><rect x="760" y="168.88888888888889" width="168.8888888888889" height="21.11111111111111" fill="#FAF5EC" /><rect x="760" y="21.11111111111111" width="21.11111111111111" height="147.77777777777777" fill="#FAF5EC" /><rect x="781.1111111111111" y="21.11111111111111" width="147.77777777777783" height="21.11111111111111" fill="#FAF5EC" /><rect x="907.7777777777778" y="42.22222222222222" width="21.11111111111111" height="126.66666666666666" fill="#FAF5EC" /><rect x="781.1111111111111" y="147.77777777777777" width="126.66666666666674" height="21.11111111111111" fill="#8A6A3D" /><rect x="781.1111111111111" y="42.22222222222222" width="21.11111111111111" height="105.55555555555554" fill="#8A6A3D" /><rect x="802.2222222222222" y="42.22222222222222" width="105.55555555555566" height="21.11111111111111" fill="#8A6A3D" /><rect x="886.6666666666667" y="63.33333333333333" width="21.11111111111111" height="84.44444444444444" fill="#8A6A3D" /><rect x="802.2222222222222" y="126.66666666666666" width="84.44444444444457" height="21.11111111111111" fill="#FAF5EC" /><rect x="802.2222222222222" y="63.33333333333333" width="21.11111111111111" height="63.33333333333333" fill="#FAF5EC" /><rect x="823.3333333333333" y="63.33333333333333" width="63.333333333333485" height="21.11111111111111" fill="#FAF5EC" /><rect x="865.5555555555557" y="84.44444444444444" width="21.11111111111111" height="42.222222222222214" fill="#FAF5EC" /><rect x="823.3333333333333" y="105.55555555555554" width="42.2222222222224" height="21.11111111111111" fill="#8A6A3D" /><rect x="823.3333333333333" y="84.44444444444444" width="21.11111111111111" height="21.1111111111111" fill="#8A6A3D" /><rect x="844.4444444444443" y="84.44444444444444" width="21.111111111111313" height="21.1111111111111" fill="#8A6A3D" /></g><g><rect x="950" y="0" width="190" height="190" fill="#20303A" /><rect x="950" y="0" width="190" height="21.11111111111111" fill="#504a3b" /><rect x="1118.888888888889" y="21.11111111111111" width="21.11111111111111" height="168.88888888888889" fill="#504a3b" /><rect x="950" y="168.88888888888889" width="168.8888888888889" height="21.11111111111111" fill="#20303A" /><rect x="950" y="21.11111111111111" width="21.11111111111111" height="147.77777777777777" fill="#20303A" /><rect x="971.1111111111111" y="21.11111111111111" width="147.77777777777783" height="21.11111111111111" fill="#20303A" /><rect x="1097.7777777777778" y="42.22222222222222" width="21.11111111111111" height="126.66666666666666" fill="#20303A" /><rect x="971.1111111111111" y="147.77777777777777" width="126.66666666666674" height="21.11111111111111" fill="#504a3b" /><rect x="971.1111111111111" y="42.22222222222222" width="21.11111111111111" height="105.55555555555554" fill="#504a3b" /><rect x="992.2222222222222" y="42.22222222222222" width="105.55555555555566" height="21.11111111111111" fill="#504a3b" /><rect x="1076.6666666666667" y="63.33333333333333" width="21.11111111111111" height="84.44444444444444" fill="#504a3b" /><rect x="992.2222222222222" y="126.66666666666666" width="84.44444444444457" height="21.11111111111111" fill="#20303A" /><rect x="992.2222222222222" y="63.33333333333333" width="21.11111111111111" height="63.33333333333333" fill="#20303A" /><rect x="1013.3333333333333" y="63.33333333333333" width="63.333333333333485" height="21.11111111111111" fill="#20303A" /><rect x="1055.5555555555557" y="84.44444444444444" width="21.11111111111111" height="42.222222222222214" fill="#20303A" /><rect x="1013.3333333333333" y="105.55555555555554" width="42.2222222222224" height="21.11111111111111" fill="#504a3b" /><rect x="1013.3333333333333" y="84.44444444444444" width="21.11111111111111" height="21.1111111111111" fill="#504a3b" /><rect x="1034.4444444444443" y="84.44444444444444" width="21.111111111111313" height="21.1111111111111" fill="#504a3b" /></g><g><rect x="0" y="190" width="190" height="190" fill="#E7DCC9" /><rect x="0" y="190" width="190" height="21.11111111111111" fill="#c8b69d" /><rect x="168.88888888888889" y="211.11111111111111" width="21.11111111111111" height="168.88888888888889" fill="#c8b69d" /><rect x="0" y="358.8888888888889" width="168.88888888888889" height="21.11111111111111" fill="#E7DCC9" /><rect x="0" y="211.11111111111111" width="21.11111111111111" height="147.7777777777778" fill="#E7DCC9" /><rect x="21.11111111111111" y="211.11111111111111" width="147.77777777777777" height="21.11111111111111" fill="#E7DCC9" /><rect x="147.77777777777777" y="232.22222222222223" width="21.11111111111111" height="126.66666666666669" fill="#E7DCC9" /><rect x="21.11111111111111" y="337.7777777777778" width="126.66666666666666" height="21.11111111111111" fill="#c8b69d" /><rect x="21.11111111111111" y="232.22222222222223" width="21.11111111111111" height="105.5555555555556" fill="#c8b69d" /><rect x="42.22222222222222" y="232.22222222222223" width="105.55555555555554" height="21.11111111111111" fill="#c8b69d" /><rect x="126.66666666666666" y="253.33333333333334" width="21.11111111111111" height="84.44444444444449" fill="#c8b69d" /><rect x="42.22222222222222" y="316.66666666666674" width="84.44444444444443" height="21.11111111111111" fill="#E7DCC9" /><rect x="42.22222222222222" y="253.33333333333334" width="21.11111111111111" height="63.3333333333334" fill="#E7DCC9" /><rect x="63.33333333333333" y="253.33333333333334" width="63.33333333333333" height="21.11111111111111" fill="#E7DCC9" /><rect x="105.55555555555554" y="274.44444444444446" width="21.11111111111111" height="42.222222222222285" fill="#E7DCC9" /><rect x="63.33333333333333" y="295.55555555555566" width="42.222222222222214" height="21.11111111111111" fill="#c8b69d" /><rect x="63.33333333333333" y="274.44444444444446" width="21.11111111111111" height="21.1111111111112" fill="#c8b69d" /><rect x="84.44444444444444" y="274.44444444444446" width="21.1111111111111" height="21.1111111111112" fill="#c8b69d" /></g><g><rect x="190" y="190" width="190" height="190" fill="#8A6A3D" /><rect x="190" y="190" width="190" height="21.11111111111111" fill="#20303A" /><rect x="358.8888888888889" y="211.11111111111111" width="21.11111111111111" height="168.88888888888889" fill="#20303A" /><rect x="190" y="358.8888888888889" width="168.8888888888889" height="21.11111111111111" fill="#8A6A3D" /><rect x="190" y="211.11111111111111" width="21.11111111111111" height="147.7777777777778" fill="#8A6A3D" /><rect x="211.11111111111111" y="211.11111111111111" width="147.7777777777778" height="21.11111111111111" fill="#8A6A3D" /><rect x="337.7777777777778" y="232.22222222222223" width="21.11111111111111" height="126.66666666666669" fill="#8A6A3D" /><rect x="211.11111111111111" y="337.7777777777778" width="126.66666666666671" height="21.11111111111111" fill="#20303A" /><rect x="211.11111111111111" y="232.22222222222223" width="21.11111111111111" height="105.5555555555556" fill="#20303A" /><rect x="232.22222222222223" y="232.22222222222223" width="105.5555555555556" height="21.11111111111111" fill="#20303A" /><rect x="316.66666666666674" y="253.33333333333334" width="21.11111111111111" height="84.44444444444449" fill="#20303A" /><rect x="232.22222222222223" y="316.66666666666674" width="84.44444444444451" height="21.11111111111111" fill="#8A6A3D" /><rect x="232.22222222222223" y="253.33333333333334" width="21.11111111111111" height="63.3333333333334" fill="#8A6A3D" /><rect x="253.33333333333334" y="253.33333333333334" width="63.3333333333334" height="21.11111111111111" fill="#8A6A3D" /><rect x="295.55555555555566" y="274.44444444444446" width="21.11111111111111" height="42.222222222222285" fill="#8A6A3D" /><rect x="253.33333333333334" y="295.55555555555566" width="42.222222222222314" height="21.11111111111111" fill="#20303A" /><rect x="253.33333333333334" y="274.44444444444446" width="21.11111111111111" height="21.1111111111112" fill="#20303A" /><rect x="274.44444444444446" y="274.44444444444446" width="21.1111111111112" height="21.1111111111112" fill="#20303A" /></g><g><rect x="380" y="190" width="190" height="190" fill="#FAF5EC" /><rect x="380" y="190" width="190" height="21.11111111111111" fill="#8A6A3D" /><rect x="548.8888888888889" y="211.11111111111111" width="21.11111111111111" height="168.88888888888889" fill="#8A6A3D" /><rect x="380" y="358.8888888888889" width="168.8888888888889" height="21.11111111111111" fill="#FAF5EC" /><rect x="380" y="211.11111111111111" width="21.11111111111111" height="147.7777777777778" fill="#FAF5EC" /><rect x="401.1111111111111" y="211.11111111111111" width="147.77777777777783" height="21.11111111111111" fill="#FAF5EC" /><rect x="527.7777777777778" y="232.22222222222223" width="21.11111111111111" height="126.66666666666669" fill="#FAF5EC" /><rect x="401.1111111111111" y="337.7777777777778" width="126.66666666666674" height="21.11111111111111" fill="#8A6A3D" /><rect x="401.1111111111111" y="232.22222222222223" width="21.11111111111111" height="105.5555555555556" fill="#8A6A3D" /><rect x="422.2222222222222" y="232.22222222222223" width="105.55555555555566" height="21.11111111111111" fill="#8A6A3D" /><rect x="506.66666666666674" y="253.33333333333334" width="21.11111111111111" height="84.44444444444449" fill="#8A6A3D" /><rect x="422.2222222222222" y="316.66666666666674" width="84.44444444444457" height="21.11111111111111" fill="#FAF5EC" /><rect x="422.2222222222222" y="253.33333333333334" width="21.11111111111111" height="63.3333333333334" fill="#FAF5EC" /><rect x="443.33333333333326" y="253.33333333333334" width="63.333333333333485" height="21.11111111111111" fill="#FAF5EC" /><rect x="485.55555555555566" y="274.44444444444446" width="21.11111111111111" height="42.222222222222285" fill="#FAF5EC" /><rect x="443.33333333333326" y="295.55555555555566" width="42.2222222222224" height="21.11111111111111" fill="#8A6A3D" /><rect x="443.33333333333326" y="274.44444444444446" width="21.11111111111111" height="21.1111111111112" fill="#8A6A3D" /><rect x="464.44444444444434" y="274.44444444444446" width="21.111111111111313" height="21.1111111111112" fill="#8A6A3D" /></g><g><rect x="570" y="190" width="190" height="190" fill="#20303A" /><rect x="570" y="190" width="190" height="21.11111111111111" fill="#504a3b" /><rect x="738.8888888888889" y="211.11111111111111" width="21.11111111111111" height="168.88888888888889" fill="#504a3b" /><rect x="570" y="358.8888888888889" width="168.8888888888889" height="21.11111111111111" fill="#20303A" /><rect x="570" y="211.11111111111111" width="21.11111111111111" height="147.7777777777778" fill="#20303A" /><rect x="591.1111111111111" y="211.11111111111111" width="147.77777777777783" height="21.11111111111111" fill="#20303A" /><rect x="717.7777777777778" y="232.22222222222223" width="21.11111111111111" height="126.66666666666669" fill="#20303A" /><rect x="591.1111111111111" y="337.7777777777778" width="126.66666666666674" height="21.11111111111111" fill="#504a3b" /><rect x="591.1111111111111" y="232.22222222222223" width="21.11111111111111" height="105.5555555555556" fill="#504a3b" /><rect x="612.2222222222222" y="232.22222222222223" width="105.55555555555566" height="21.11111111111111" fill="#504a3b" /><rect x="696.6666666666667" y="253.33333333333334" width="21.11111111111111" height="84.44444444444449" fill="#504a3b" /><rect x="612.2222222222222" y="316.66666666666674" width="84.44444444444457" height="21.11111111111111" fill="#20303A" /><rect x="612.2222222222222" y="253.33333333333334" width="21.11111111111111" height="63.3333333333334" fill="#20303A" /><rect x="633.3333333333333" y="253.33333333333334" width="63.333333333333485" height="21.11111111111111" fill="#20303A" /><rect x="675.5555555555557" y="274.44444444444446" width="21.11111111111111" height="42.222222222222285" fill="#20303A" /><rect x="633.3333333333333" y="295.55555555555566" width="42.2222222222224" height="21.11111111111111" fill="#504a3b" /><rect x="633.3333333333333" y="274.44444444444446" width="21.11111111111111" height="21.1111111111112" fill="#504a3b" /><rect x="654.4444444444443" y="274.44444444444446" width="21.111111111111313" height="21.1111111111112" fill="#504a3b" /></g><g><rect x="760" y="190" width="190" height="190" fill="#E7DCC9" /><rect x="760" y="190" width="190" height="21.11111111111111" fill="#c8b69d" /><rect x="928.8888888888889" y="211.11111111111111" width="21.11111111111111" height="168.88888888888889" fill="#c8b69d" /><rect x="760" y="358.8888888888889" width="168.8888888888889" height="21.11111111111111" fill="#E7DCC9" /><rect x="760" y="211.11111111111111" width="21.11111111111111" height="147.7777777777778" fill="#E7DCC9" /><rect x="781.1111111111111" y="211.11111111111111" width="147.77777777777783" height="21.11111111111111" fill="#E7DCC9" /><rect x="907.7777777777778" y="232.22222222222223" width="21.11111111111111" height="126.66666666666669" fill="#E7DCC9" /><rect x="781.1111111111111" y="337.7777777777778" width="126.66666666666674" height="21.11111111111111" fill="#c8b69d" /><rect x="781.1111111111111" y="232.22222222222223" width="21.11111111111111" height="105.5555555555556" fill="#c8b69d" /><rect x="802.2222222222222" y="232.22222222222223" width="105.55555555555566" height="21.11111111111111" fill="#c8b69d" /><rect x="886.6666666666667" y="253.33333333333334" width="21.11111111111111" height="84.44444444444449" fill="#c8b69d" /><rect x="802.2222222222222" y="316.66666666666674" width="84.44444444444457" height="21.11111111111111" fill="#E7DCC9" /><rect x="802.2222222222222" y="253.33333333333334" width="21.11111111111111" height="63.3333333333334" fill="#E7DCC9" /><rect x="823.3333333333333" y="253.33333333333334" width="63.333333333333485" height="21.11111111111111" fill="#E7DCC9" /><rect x="865.5555555555557" y="274.44444444444446" width="21.11111111111111" height="42.222222222222285" fill="#E7DCC9" /><rect x="823.3333333333333" y="295.55555555555566" width="42.2222222222224" height="21.11111111111111" fill="#c8b69d" /><rect x="823.3333333333333" y="274.44444444444446" width="21.11111111111111" height="21.1111111111112" fill="#c8b69d" /><rect x="844.4444444444443" y="274.44444444444446" width="21.111111111111313" height="21.1111111111112" fill="#c8b69d" /></g><g><rect x="950" y="190" width="190" height="190" fill="#8A6A3D" /><rect x="950" y="190" width="190" height="21.11111111111111" fill="#20303A" /><rect x="1118.888888888889" y="211.11111111111111" width="21.11111111111111" height="168.88888888888889" fill="#20303A" /><rect x="950" y="358.8888888888889" width="168.8888888888889" height="21.11111111111111" fill="#8A6A3D" /><rect x="950" y="211.11111111111111" width="21.11111111111111" height="147.7777777777778" fill="#8A6A3D" /><rect x="971.1111111111111" y="211.11111111111111" width="147.77777777777783" height="21.11111111111111" fill="#8A6A3D" /><rect x="1097.7777777777778" y="232.22222222222223" width="21.11111111111111" height="126.66666666666669" fill="#8A6A3D" /><rect x="971.1111111111111" y="337.7777777777778" width="126.66666666666674" height="21.11111111111111" fill="#20303A" /><rect x="971.1111111111111" y="232.22222222222223" width="21.11111111111111" height="105.5555555555556" fill="#20303A" /><rect x="992.2222222222222" y="232.22222222222223" width="105.55555555555566" height="21.11111111111111" fill="#20303A" /><rect x="1076.6666666666667" y="253.33333333333334" width="21.11111111111111" height="84.44444444444449" fill="#20303A" /><rect x="992.2222222222222" y="316.66666666666674" width="84.44444444444457" height="21.11111111111111" fill="#8A6A3D" /><rect x="992.2222222222222" y="253.33333333333334" width="21.11111111111111" height="63.3333333333334" fill="#8A6A3D" /><rect x="1013.3333333333333" y="253.33333333333334" width="63.333333333333485" height="21.11111111111111" fill="#8A6A3D" /><rect x="1055.5555555555557" y="274.44444444444446" width="21.11111111111111" height="42.222222222222285" fill="#8A6A3D" /><rect x="1013.3333333333333" y="295.55555555555566" width="42.2222222222224" height="21.11111111111111" fill="#20303A" /><rect x="1013.3333333333333" y="274.44444444444446" width="21.11111111111111" height="21.1111111111112" fill="#20303A" /><rect x="1034.4444444444443" y="274.44444444444446" width="21.111111111111313" height="21.1111111111112" fill="#20303A" /></g><g><rect x="0" y="380" width="190" height="190" fill="#FAF5EC" /><rect x="0" y="380" width="190" height="21.11111111111111" fill="#8A6A3D" /><rect x="168.88888888888889" y="401.1111111111111" width="21.11111111111111" height="168.8888888888889" fill="#8A6A3D" /><rect x="0" y="548.8888888888889" width="168.88888888888889" height="21.11111111111111" fill="#FAF5EC" /><rect x="0" y="401.1111111111111" width="21.11111111111111" height="147.77777777777783" fill="#FAF5EC" /><rect x="21.11111111111111" y="401.1111111111111" width="147.77777777777777" height="21.11111111111111" fill="#FAF5EC" /><rect x="147.77777777777777" y="422.2222222222222" width="21.11111111111111" height="126.66666666666674" fill="#FAF5EC" /><rect x="21.11111111111111" y="527.7777777777778" width="126.66666666666666" height="21.11111111111111" fill="#8A6A3D" /><rect x="21.11111111111111" y="422.2222222222222" width="21.11111111111111" height="105.55555555555566" fill="#8A6A3D" /><rect x="42.22222222222222" y="422.2222222222222" width="105.55555555555554" height="21.11111111111111" fill="#8A6A3D" /><rect x="126.66666666666666" y="443.33333333333326" width="21.11111111111111" height="84.44444444444457" fill="#8A6A3D" /><rect x="42.22222222222222" y="506.66666666666674" width="84.44444444444443" height="21.11111111111111" fill="#FAF5EC" /><rect x="42.22222222222222" y="443.33333333333326" width="21.11111111111111" height="63.333333333333485" fill="#FAF5EC" /><rect x="63.33333333333333" y="443.33333333333326" width="63.33333333333333" height="21.11111111111111" fill="#FAF5EC" /><rect x="105.55555555555554" y="464.44444444444434" width="21.11111111111111" height="42.2222222222224" fill="#FAF5EC" /><rect x="63.33333333333333" y="485.55555555555566" width="42.222222222222214" height="21.11111111111111" fill="#8A6A3D" /><rect x="63.33333333333333" y="464.44444444444434" width="21.11111111111111" height="21.111111111111313" fill="#8A6A3D" /><rect x="84.44444444444444" y="464.44444444444434" width="21.1111111111111" height="21.111111111111313" fill="#8A6A3D" /></g><g><rect x="190" y="380" width="190" height="190" fill="#20303A" /><rect x="190" y="380" width="190" height="21.11111111111111" fill="#504a3b" /><rect x="358.8888888888889" y="401.1111111111111" width="21.11111111111111" height="168.8888888888889" fill="#504a3b" /><rect x="190" y="548.8888888888889" width="168.8888888888889" height="21.11111111111111" fill="#20303A" /><rect x="190" y="401.1111111111111" width="21.11111111111111" height="147.77777777777783" fill="#20303A" /><rect x="211.11111111111111" y="401.1111111111111" width="147.7777777777778" height="21.11111111111111" fill="#20303A" /><rect x="337.7777777777778" y="422.2222222222222" width="21.11111111111111" height="126.66666666666674" fill="#20303A" /><rect x="211.11111111111111" y="527.7777777777778" width="126.66666666666671" height="21.11111111111111" fill="#504a3b" /><rect x="211.11111111111111" y="422.2222222222222" width="21.11111111111111" height="105.55555555555566" fill="#504a3b" /><rect x="232.22222222222223" y="422.2222222222222" width="105.5555555555556" height="21.11111111111111" fill="#504a3b" /><rect x="316.66666666666674" y="443.33333333333326" width="21.11111111111111" height="84.44444444444457" fill="#504a3b" /><rect x="232.22222222222223" y="506.66666666666674" width="84.44444444444451" height="21.11111111111111" fill="#20303A" /><rect x="232.22222222222223" y="443.33333333333326" width="21.11111111111111" height="63.333333333333485" fill="#20303A" /><rect x="253.33333333333334" y="443.33333333333326" width="63.3333333333334" height="21.11111111111111" fill="#20303A" /><rect x="295.55555555555566" y="464.44444444444434" width="21.11111111111111" height="42.2222222222224" fill="#20303A" /><rect x="253.33333333333334" y="485.55555555555566" width="42.222222222222314" height="21.11111111111111" fill="#504a3b" /><rect x="253.33333333333334" y="464.44444444444434" width="21.11111111111111" height="21.111111111111313" fill="#504a3b" /><rect x="274.44444444444446" y="464.44444444444434" width="21.1111111111112" height="21.111111111111313" fill="#504a3b" /></g><g><rect x="380" y="380" width="190" height="190" fill="#E7DCC9" /><rect x="380" y="380" width="190" height="21.11111111111111" fill="#c8b69d" /><rect x="548.8888888888889" y="401.1111111111111" width="21.11111111111111" height="168.8888888888889" fill="#c8b69d" /><rect x="380" y="548.8888888888889" width="168.8888888888889" height="21.11111111111111" fill="#E7DCC9" /><rect x="380" y="401.1111111111111" width="21.11111111111111" height="147.77777777777783" fill="#E7DCC9" /><rect x="401.1111111111111" y="401.1111111111111" width="147.77777777777783" height="21.11111111111111" fill="#E7DCC9" /><rect x="527.7777777777778" y="422.2222222222222" width="21.11111111111111" height="126.66666666666674" fill="#E7DCC9" /><rect x="401.1111111111111" y="527.7777777777778" width="126.66666666666674" height="21.11111111111111" fill="#c8b69d" /><rect x="401.1111111111111" y="422.2222222222222" width="21.11111111111111" height="105.55555555555566" fill="#c8b69d" /><rect x="422.2222222222222" y="422.2222222222222" width="105.55555555555566" height="21.11111111111111" fill="#c8b69d" /><rect x="506.66666666666674" y="443.33333333333326" width="21.11111111111111" height="84.44444444444457" fill="#c8b69d" /><rect x="422.2222222222222" y="506.66666666666674" width="84.44444444444457" height="21.11111111111111" fill="#E7DCC9" /><rect x="422.2222222222222" y="443.33333333333326" width="21.11111111111111" height="63.333333333333485" fill="#E7DCC9" /><rect x="443.33333333333326" y="443.33333333333326" width="63.333333333333485" height="21.11111111111111" fill="#E7DCC9" /><rect x="485.55555555555566" y="464.44444444444434" width="21.11111111111111" height="42.2222222222224" fill="#E7DCC9" /><rect x="443.33333333333326" y="485.55555555555566" width="42.2222222222224" height="21.11111111111111" fill="#c8b69d" /><rect x="443.33333333333326" y="464.44444444444434" width="21.11111111111111" height="21.111111111111313" fill="#c8b69d" /><rect x="464.44444444444434" y="464.44444444444434" width="21.111111111111313" height="21.111111111111313" fill="#c8b69d" /></g><g><rect x="570" y="380" width="190" height="190" fill="#8A6A3D" /><rect x="570" y="380" width="190" height="21.11111111111111" fill="#20303A" /><rect x="738.8888888888889" y="401.1111111111111" width="21.11111111111111" height="168.8888888888889" fill="#20303A" /><rect x="570" y="548.8888888888889" width="168.8888888888889" height="21.11111111111111" fill="#8A6A3D" /><rect x="570" y="401.1111111111111" width="21.11111111111111" height="147.77777777777783" fill="#8A6A3D" /><rect x="591.1111111111111" y="401.1111111111111" width="147.77777777777783" height="21.11111111111111" fill="#8A6A3D" /><rect x="717.7777777777778" y="422.2222222222222" width="21.11111111111111" height="126.66666666666674" fill="#8A6A3D" /><rect x="591.1111111111111" y="527.7777777777778" width="126.66666666666674" height="21.11111111111111" fill="#20303A" /><rect x="591.1111111111111" y="422.2222222222222" width="21.11111111111111" height="105.55555555555566" fill="#20303A" /><rect x="612.2222222222222" y="422.2222222222222" width="105.55555555555566" height="21.11111111111111" fill="#20303A" /><rect x="696.6666666666667" y="443.33333333333326" width="21.11111111111111" height="84.44444444444457" fill="#20303A" /><rect x="612.2222222222222" y="506.66666666666674" width="84.44444444444457" height="21.11111111111111" fill="#8A6A3D" /><rect x="612.2222222222222" y="443.33333333333326" width="21.11111111111111" height="63.333333333333485" fill="#8A6A3D" /><rect x="633.3333333333333" y="443.33333333333326" width="63.333333333333485" height="21.11111111111111" fill="#8A6A3D" /><rect x="675.5555555555557" y="464.44444444444434" width="21.11111111111111" height="42.2222222222224" fill="#8A6A3D" /><rect x="633.3333333333333" y="485.55555555555566" width="42.2222222222224" height="21.11111111111111" fill="#20303A" /><rect x="633.3333333333333" y="464.44444444444434" width="21.11111111111111" height="21.111111111111313" fill="#20303A" /><rect x="654.4444444444443" y="464.44444444444434" width="21.111111111111313" height="21.111111111111313" fill="#20303A" /></g><g><rect x="760" y="380" width="190" height="190" fill="#FAF5EC" /><rect x="760" y="380" width="190" height="21.11111111111111" fill="#8A6A3D" /><rect x="928.8888888888889" y="401.1111111111111" width="21.11111111111111" height="168.8888888888889" fill="#8A6A3D" /><rect x="760" y="548.8888888888889" width="168.8888888888889" height="21.11111111111111" fill="#FAF5EC" /><rect x="760" y="401.1111111111111" width="21.11111111111111" height="147.77777777777783" fill="#FAF5EC" /><rect x="781.1111111111111" y="401.1111111111111" width="147.77777777777783" height="21.11111111111111" fill="#FAF5EC" /><rect x="907.7777777777778" y="422.2222222222222" width="21.11111111111111" height="126.66666666666674" fill="#FAF5EC" /><rect x="781.1111111111111" y="527.7777777777778" width="126.66666666666674" height="21.11111111111111" fill="#8A6A3D" /><rect x="781.1111111111111" y="422.2222222222222" width="21.11111111111111" height="105.55555555555566" fill="#8A6A3D" /><rect x="802.2222222222222" y="422.2222222222222" width="105.55555555555566" height="21.11111111111111" fill="#8A6A3D" /><rect x="886.6666666666667" y="443.33333333333326" width="21.11111111111111" height="84.44444444444457" fill="#8A6A3D" /><rect x="802.2222222222222" y="506.66666666666674" width="84.44444444444457" height="21.11111111111111" fill="#FAF5EC" /><rect x="802.2222222222222" y="443.33333333333326" width="21.11111111111111" height="63.333333333333485" fill="#FAF5EC" /><rect x="823.3333333333333" y="443.33333333333326" width="63.333333333333485" height="21.11111111111111" fill="#FAF5EC" /><rect x="865.5555555555557" y="464.44444444444434" width="21.11111111111111" height="42.2222222222224" fill="#FAF5EC" /><rect x="823.3333333333333" y="485.55555555555566" width="42.2222222222224" height="21.11111111111111" fill="#8A6A3D" /><rect x="823.3333333333333" y="464.44444444444434" width="21.11111111111111" height="21.111111111111313" fill="#8A6A3D" /><rect x="844.4444444444443" y="464.44444444444434" width="21.111111111111313" height="21.111111111111313" fill="#8A6A3D" /></g><g><rect x="950" y="380" width="190" height="190" fill="#20303A" /><rect x="950" y="380" width="190" height="21.11111111111111" fill="#504a3b" /><rect x="1118.888888888889" y="401.1111111111111" width="21.11111111111111" height="168.8888888888889" fill="#504a3b" /><rect x="950" y="548.8888888888889" width="168.8888888888889" height="21.11111111111111" fill="#20303A" /><rect x="950" y="401.1111111111111" width="21.11111111111111" height="147.77777777777783" fill="#20303A" /><rect x="971.1111111111111" y="401.1111111111111" width="147.77777777777783" height="21.11111111111111" fill="#20303A" /><rect x="1097.7777777777778" y="422.2222222222222" width="21.11111111111111" height="126.66666666666674" fill="#20303A" /><rect x="971.1111111111111" y="527.7777777777778" width="126.66666666666674" height="21.11111111111111" fill="#504a3b" /><rect x="971.1111111111111" y="422.2222222222222" width="21.11111111111111" height="105.55555555555566" fill="#504a3b" /><rect x="992.2222222222222" y="422.2222222222222" width="105.55555555555566" height="21.11111111111111" fill="#504a3b" /><rect x="1076.6666666666667" y="443.33333333333326" width="21.11111111111111" height="84.44444444444457" fill="#504a3b" /><rect x="992.2222222222222" y="506.66666666666674" width="84.44444444444457" height="21.11111111111111" fill="#20303A" /><rect x="992.2222222222222" y="443.33333333333326" width="21.11111111111111" height="63.333333333333485" fill="#20303A" /><rect x="1013.3333333333333" y="443.33333333333326" width="63.333333333333485" height="21.11111111111111" fill="#20303A" /><rect x="1055.5555555555557" y="464.44444444444434" width="21.11111111111111" height="42.2222222222224" fill="#20303A" /><rect x="1013.3333333333333" y="485.55555555555566" width="42.2222222222224" height="21.11111111111111" fill="#504a3b" /><rect x="1013.3333333333333" y="464.44444444444434" width="21.11111111111111" height="21.111111111111313" fill="#504a3b" /><rect x="1034.4444444444443" y="464.44444444444434" width="21.111111111111313" height="21.111111111111313" fill="#504a3b" /></g><g><rect x="0" y="570" width="190" height="190" fill="#E7DCC9" /><rect x="0" y="570" width="190" height="21.11111111111111" fill="#c8b69d" /><rect x="168.88888888888889" y="591.1111111111111" width="21.11111111111111" height="168.8888888888889" fill="#c8b69d" /><rect x="0" y="738.8888888888889" width="168.88888888888889" height="21.11111111111111" fill="#E7DCC9" /><rect x="0" y="591.1111111111111" width="21.11111111111111" height="147.77777777777783" fill="#E7DCC9" /><rect x="21.11111111111111" y="591.1111111111111" width="147.77777777777777" height="21.11111111111111" fill="#E7DCC9" /><rect x="147.77777777777777" y="612.2222222222222" width="21.11111111111111" height="126.66666666666674" fill="#E7DCC9" /><rect x="21.11111111111111" y="717.7777777777778" width="126.66666666666666" height="21.11111111111111" fill="#c8b69d" /><rect x="21.11111111111111" y="612.2222222222222" width="21.11111111111111" height="105.55555555555566" fill="#c8b69d" /><rect x="42.22222222222222" y="612.2222222222222" width="105.55555555555554" height="21.11111111111111" fill="#c8b69d" /><rect x="126.66666666666666" y="633.3333333333333" width="21.11111111111111" height="84.44444444444457" fill="#c8b69d" /><rect x="42.22222222222222" y="696.6666666666667" width="84.44444444444443" height="21.11111111111111" fill="#E7DCC9" /><rect x="42.22222222222222" y="633.3333333333333" width="21.11111111111111" height="63.333333333333485" fill="#E7DCC9" /><rect x="63.33333333333333" y="633.3333333333333" width="63.33333333333333" height="21.11111111111111" fill="#E7DCC9" /><rect x="105.55555555555554" y="654.4444444444443" width="21.11111111111111" height="42.2222222222224" fill="#E7DCC9" /><rect x="63.33333333333333" y="675.5555555555557" width="42.222222222222214" height="21.11111111111111" fill="#c8b69d" /><rect x="63.33333333333333" y="654.4444444444443" width="21.11111111111111" height="21.111111111111313" fill="#c8b69d" /><rect x="84.44444444444444" y="654.4444444444443" width="21.1111111111111" height="21.111111111111313" fill="#c8b69d" /></g><g><rect x="190" y="570" width="190" height="190" fill="#8A6A3D" /><rect x="190" y="570" width="190" height="21.11111111111111" fill="#20303A" /><rect x="358.8888888888889" y="591.1111111111111" width="21.11111111111111" height="168.8888888888889" fill="#20303A" /><rect x="190" y="738.8888888888889" width="168.8888888888889" height="21.11111111111111" fill="#8A6A3D" /><rect x="190" y="591.1111111111111" width="21.11111111111111" height="147.77777777777783" fill="#8A6A3D" /><rect x="211.11111111111111" y="591.1111111111111" width="147.7777777777778" height="21.11111111111111" fill="#8A6A3D" /><rect x="337.7777777777778" y="612.2222222222222" width="21.11111111111111" height="126.66666666666674" fill="#8A6A3D" /><rect x="211.11111111111111" y="717.7777777777778" width="126.66666666666671" height="21.11111111111111" fill="#20303A" /><rect x="211.11111111111111" y="612.2222222222222" width="21.11111111111111" height="105.55555555555566" fill="#20303A" /><rect x="232.22222222222223" y="612.2222222222222" width="105.5555555555556" height="21.11111111111111" fill="#20303A" /><rect x="316.66666666666674" y="633.3333333333333" width="21.11111111111111" height="84.44444444444457" fill="#20303A" /><rect x="232.22222222222223" y="696.6666666666667" width="84.44444444444451" height="21.11111111111111" fill="#8A6A3D" /><rect x="232.22222222222223" y="633.3333333333333" width="21.11111111111111" height="63.333333333333485" fill="#8A6A3D" /><rect x="253.33333333333334" y="633.3333333333333" width="63.3333333333334" height="21.11111111111111" fill="#8A6A3D" /><rect x="295.55555555555566" y="654.4444444444443" width="21.11111111111111" height="42.2222222222224" fill="#8A6A3D" /><rect x="253.33333333333334" y="675.5555555555557" width="42.222222222222314" height="21.11111111111111" fill="#20303A" /><rect x="253.33333333333334" y="654.4444444444443" width="21.11111111111111" height="21.111111111111313" fill="#20303A" /><rect x="274.44444444444446" y="654.4444444444443" width="21.1111111111112" height="21.111111111111313" fill="#20303A" /></g><g><rect x="380" y="570" width="190" height="190" fill="#FAF5EC" /><rect x="380" y="570" width="190" height="21.11111111111111" fill="#8A6A3D" /><rect x="548.8888888888889" y="591.1111111111111" width="21.11111111111111" height="168.8888888888889" fill="#8A6A3D" /><rect x="380" y="738.8888888888889" width="168.8888888888889" height="21.11111111111111" fill="#FAF5EC" /><rect x="380" y="591.1111111111111" width="21.11111111111111" height="147.77777777777783" fill="#FAF5EC" /><rect x="401.1111111111111" y="591.1111111111111" width="147.77777777777783" height="21.11111111111111" fill="#FAF5EC" /><rect x="527.7777777777778" y="612.2222222222222" width="21.11111111111111" height="126.66666666666674" fill="#FAF5EC" /><rect x="401.1111111111111" y="717.7777777777778" width="126.66666666666674" height="21.11111111111111" fill="#8A6A3D" /><rect x="401.1111111111111" y="612.2222222222222" width="21.11111111111111" height="105.55555555555566" fill="#8A6A3D" /><rect x="422.2222222222222" y="612.2222222222222" width="105.55555555555566" height="21.11111111111111" fill="#8A6A3D" /><rect x="506.66666666666674" y="633.3333333333333" width="21.11111111111111" height="84.44444444444457" fill="#8A6A3D" /><rect x="422.2222222222222" y="696.6666666666667" width="84.44444444444457" height="21.11111111111111" fill="#FAF5EC" /><rect x="422.2222222222222" y="633.3333333333333" width="21.11111111111111" height="63.333333333333485" fill="#FAF5EC" /><rect x="443.33333333333326" y="633.3333333333333" width="63.333333333333485" height="21.11111111111111" fill="#FAF5EC" /><rect x="485.55555555555566" y="654.4444444444443" width="21.11111111111111" height="42.2222222222224" fill="#FAF5EC" /><rect x="443.33333333333326" y="675.5555555555557" width="42.2222222222224" height="21.11111111111111" fill="#8A6A3D" /><rect x="443.33333333333326" y="654.4444444444443" width="21.11111111111111" height="21.111111111111313" fill="#8A6A3D" /><rect x="464.44444444444434" y="654.4444444444443" width="21.111111111111313" height="21.111111111111313" fill="#8A6A3D" /></g><g><rect x="570" y="570" width="190" height="190" fill="#20303A" /><rect x="570" y="570" width="190" height="21.11111111111111" fill="#504a3b" /><rect x="738.8888888888889" y="591.1111111111111" width="21.11111111111111" height="168.8888888888889" fill="#504a3b" /><rect x="570" y="738.8888888888889" width="168.8888888888889" height="21.11111111111111" fill="#20303A" /><rect x="570" y="591.1111111111111" width="21.11111111111111" height="147.77777777777783" fill="#20303A" /><rect x="591.1111111111111" y="591.1111111111111" width="147.77777777777783" height="21.11111111111111" fill="#20303A" /><rect x="717.7777777777778" y="612.2222222222222" width="21.11111111111111" height="126.66666666666674" fill="#20303A" /><rect x="591.1111111111111" y="717.7777777777778" width="126.66666666666674" height="21.11111111111111" fill="#504a3b" /><rect x="591.1111111111111" y="612.2222222222222" width="21.11111111111111" height="105.55555555555566" fill="#504a3b" /><rect x="612.2222222222222" y="612.2222222222222" width="105.55555555555566" height="21.11111111111111" fill="#504a3b" /><rect x="696.6666666666667" y="633.3333333333333" width="21.11111111111111" height="84.44444444444457" fill="#504a3b" /><rect x="612.2222222222222" y="696.6666666666667" width="84.44444444444457" height="21.11111111111111" fill="#20303A" /><rect x="612.2222222222222" y="633.3333333333333" width="21.11111111111111" height="63.333333333333485" fill="#20303A" /><rect x="633.3333333333333" y="633.3333333333333" width="63.333333333333485" height="21.11111111111111" fill="#20303A" /><rect x="675.5555555555557" y="654.4444444444443" width="21.11111111111111" height="42.2222222222224" fill="#20303A" /><rect x="633.3333333333333" y="675.5555555555557" width="42.2222222222224" height="21.11111111111111" fill="#504a3b" /><rect x="633.3333333333333" y="654.4444444444443" width="21.11111111111111" height="21.111111111111313" fill="#504a3b" /><rect x="654.4444444444443" y="654.4444444444443" width="21.111111111111313" height="21.111111111111313" fill="#504a3b" /></g><g><rect x="760" y="570" width="190" height="190" fill="#E7DCC9" /><rect x="760" y="570" width="190" height="21.11111111111111" fill="#c8b69d" /><rect x="928.8888888888889" y="591.1111111111111" width="21.11111111111111" height="168.8888888888889" fill="#c8b69d" /><rect x="760" y="738.8888888888889" width="168.8888888888889" height="21.11111111111111" fill="#E7DCC9" /><rect x="760" y="591.1111111111111" width="21.11111111111111" height="147.77777777777783" fill="#E7DCC9" /><rect x="781.1111111111111" y="591.1111111111111" width="147.77777777777783" height="21.11111111111111" fill="#E7DCC9" /><rect x="907.7777777777778" y="612.2222222222222" width="21.11111111111111" height="126.66666666666674" fill="#E7DCC9" /><rect x="781.1111111111111" y="717.7777777777778" width="126.66666666666674" height="21.11111111111111" fill="#c8b69d" /><rect x="781.1111111111111" y="612.2222222222222" width="21.11111111111111" height="105.55555555555566" fill="#c8b69d" /><rect x="802.2222222222222" y="612.2222222222222" width="105.55555555555566" height="21.11111111111111" fill="#c8b69d" /><rect x="886.6666666666667" y="633.3333333333333" width="21.11111111111111" height="84.44444444444457" fill="#c8b69d" /><rect x="802.2222222222222" y="696.6666666666667" width="84.44444444444457" height="21.11111111111111" fill="#E7DCC9" /><rect x="802.2222222222222" y="633.3333333333333" width="21.11111111111111" height="63.333333333333485" fill="#E7DCC9" /><rect x="823.3333333333333" y="633.3333333333333" width="63.333333333333485" height="21.11111111111111" fill="#E7DCC9" /><rect x="865.5555555555557" y="654.4444444444443" width="21.11111111111111" height="42.2222222222224" fill="#E7DCC9" /><rect x="823.3333333333333" y="675.5555555555557" width="42.2222222222224" height="21.11111111111111" fill="#c8b69d" /><rect x="823.3333333333333" y="654.4444444444443" width="21.11111111111111" height="21.111111111111313" fill="#c8b69d" /><rect x="844.4444444444443" y="654.4444444444443" width="21.111111111111313" height="21.111111111111313" fill="#c8b69d" /></g><g><rect x="950" y="570" width="190" height="190" fill="#8A6A3D" /><rect x="950" y="570" width="190" height="21.11111111111111" fill="#20303A" /><rect x="1118.888888888889" y="591.1111111111111" width="21.11111111111111" height="168.8888888888889" fill="#20303A" /><rect x="950" y="738.8888888888889" width="168.8888888888889" height="21.11111111111111" fill="#8A6A3D" /><rect x="950" y="591.1111111111111" width="21.11111111111111" height="147.77777777777783" fill="#8A6A3D" /><rect x="971.1111111111111" y="591.1111111111111" width="147.77777777777783" height="21.11111111111111" fill="#8A6A3D" /><rect x="1097.7777777777778" y="612.2222222222222" width="21.11111111111111" height="126.66666666666674" fill="#8A6A3D" /><rect x="971.1111111111111" y="717.7777777777778" width="126.66666666666674" height="21.11111111111111" fill="#20303A" /><rect x="971.1111111111111" y="612.2222222222222" width="21.11111111111111" height="105.55555555555566" fill="#20303A" /><rect x="992.2222222222222" y="612.2222222222222" width="105.55555555555566" height="21.11111111111111" fill="#20303A" /><rect x="1076.6666666666667" y="633.3333333333333" width="21.11111111111111" height="84.44444444444457" fill="#20303A" /><rect x="992.2222222222222" y="696.6666666666667" width="84.44444444444457" height="21.11111111111111" fill="#8A6A3D" /><rect x="992.2222222222222" y="633.3333333333333" width="21.11111111111111" height="63.333333333333485" fill="#8A6A3D" /><rect x="1013.3333333333333" y="633.3333333333333" width="63.333333333333485" height="21.11111111111111" fill="#8A6A3D" /><rect x="1055.5555555555557" y="654.4444444444443" width="21.11111111111111" height="42.2222222222224" fill="#8A6A3D" /><rect x="1013.3333333333333" y="675.5555555555557" width="42.2222222222224" height="21.11111111111111" fill="#20303A" /><rect x="1013.3333333333333" y="654.4444444444443" width="21.11111111111111" height="21.111111111111313" fill="#20303A" /><rect x="1034.4444444444443" y="654.4444444444443" width="21.111111111111313" height="21.111111111111313" fill="#20303A" /></g><g><rect x="0" y="760" width="190" height="190" fill="#FAF5EC" /><rect x="0" y="760" width="190" height="21.11111111111111" fill="#8A6A3D" /><rect x="168.88888888888889" y="781.1111111111111" width="21.11111111111111" height="168.8888888888889" fill="#8A6A3D" /><rect x="0" y="928.8888888888889" width="168.88888888888889" height="21.11111111111111" fill="#FAF5EC" /><rect x="0" y="781.1111111111111" width="21.11111111111111" height="147.77777777777783" fill="#FAF5EC" /><rect x="21.11111111111111" y="781.1111111111111" width="147.77777777777777" height="21.11111111111111" fill="#FAF5EC" /><rect x="147.77777777777777" y="802.2222222222222" width="21.11111111111111" height="126.66666666666674" fill="#FAF5EC" /><rect x="21.11111111111111" y="907.7777777777778" width="126.66666666666666" height="21.11111111111111" fill="#8A6A3D" /><rect x="21.11111111111111" y="802.2222222222222" width="21.11111111111111" height="105.55555555555566" fill="#8A6A3D" /><rect x="42.22222222222222" y="802.2222222222222" width="105.55555555555554" height="21.11111111111111" fill="#8A6A3D" /><rect x="126.66666666666666" y="823.3333333333333" width="21.11111111111111" height="84.44444444444457" fill="#8A6A3D" /><rect x="42.22222222222222" y="886.6666666666667" width="84.44444444444443" height="21.11111111111111" fill="#FAF5EC" /><rect x="42.22222222222222" y="823.3333333333333" width="21.11111111111111" height="63.333333333333485" fill="#FAF5EC" /><rect x="63.33333333333333" y="823.3333333333333" width="63.33333333333333" height="21.11111111111111" fill="#FAF5EC" /><rect x="105.55555555555554" y="844.4444444444443" width="21.11111111111111" height="42.2222222222224" fill="#FAF5EC" /><rect x="63.33333333333333" y="865.5555555555557" width="42.222222222222214" height="21.11111111111111" fill="#8A6A3D" /><rect x="63.33333333333333" y="844.4444444444443" width="21.11111111111111" height="21.111111111111313" fill="#8A6A3D" /><rect x="84.44444444444444" y="844.4444444444443" width="21.1111111111111" height="21.111111111111313" fill="#8A6A3D" /></g><g><rect x="190" y="760" width="190" height="190" fill="#20303A" /><rect x="190" y="760" width="190" height="21.11111111111111" fill="#504a3b" /><rect x="358.8888888888889" y="781.1111111111111" width="21.11111111111111" height="168.8888888888889" fill="#504a3b" /><rect x="190" y="928.8888888888889" width="168.8888888888889" height="21.11111111111111" fill="#20303A" /><rect x="190" y="781.1111111111111" width="21.11111111111111" height="147.77777777777783" fill="#20303A" /><rect x="211.11111111111111" y="781.1111111111111" width="147.7777777777778" height="21.11111111111111" fill="#20303A" /><rect x="337.7777777777778" y="802.2222222222222" width="21.11111111111111" height="126.66666666666674" fill="#20303A" /><rect x="211.11111111111111" y="907.7777777777778" width="126.66666666666671" height="21.11111111111111" fill="#504a3b" /><rect x="211.11111111111111" y="802.2222222222222" width="21.11111111111111" height="105.55555555555566" fill="#504a3b" /><rect x="232.22222222222223" y="802.2222222222222" width="105.5555555555556" height="21.11111111111111" fill="#504a3b" /><rect x="316.66666666666674" y="823.3333333333333" width="21.11111111111111" height="84.44444444444457" fill="#504a3b" /><rect x="232.22222222222223" y="886.6666666666667" width="84.44444444444451" height="21.11111111111111" fill="#20303A" /><rect x="232.22222222222223" y="823.3333333333333" width="21.11111111111111" height="63.333333333333485" fill="#20303A" /><rect x="253.33333333333334" y="823.3333333333333" width="63.3333333333334" height="21.11111111111111" fill="#20303A" /><rect x="295.55555555555566" y="844.4444444444443" width="21.11111111111111" height="42.2222222222224" fill="#20303A" /><rect x="253.33333333333334" y="865.5555555555557" width="42.222222222222314" height="21.11111111111111" fill="#504a3b" /><rect x="253.33333333333334" y="844.4444444444443" width="21.11111111111111" height="21.111111111111313" fill="#504a3b" /><rect x="274.44444444444446" y="844.4444444444443" width="21.1111111111112" height="21.111111111111313" fill="#504a3b" /></g><g><rect x="380" y="760" width="190" height="190" fill="#E7DCC9" /><rect x="380" y="760" width="190" height="21.11111111111111" fill="#c8b69d" /><rect x="548.8888888888889" y="781.1111111111111" width="21.11111111111111" height="168.8888888888889" fill="#c8b69d" /><rect x="380" y="928.8888888888889" width="168.8888888888889" height="21.11111111111111" fill="#E7DCC9" /><rect x="380" y="781.1111111111111" width="21.11111111111111" height="147.77777777777783" fill="#E7DCC9" /><rect x="401.1111111111111" y="781.1111111111111" width="147.77777777777783" height="21.11111111111111" fill="#E7DCC9" /><rect x="527.7777777777778" y="802.2222222222222" width="21.11111111111111" height="126.66666666666674" fill="#E7DCC9" /><rect x="401.1111111111111" y="907.7777777777778" width="126.66666666666674" height="21.11111111111111" fill="#c8b69d" /><rect x="401.1111111111111" y="802.2222222222222" width="21.11111111111111" height="105.55555555555566" fill="#c8b69d" /><rect x="422.2222222222222" y="802.2222222222222" width="105.55555555555566" height="21.11111111111111" fill="#c8b69d" /><rect x="506.66666666666674" y="823.3333333333333" width="21.11111111111111" height="84.44444444444457" fill="#c8b69d" /><rect x="422.2222222222222" y="886.6666666666667" width="84.44444444444457" height="21.11111111111111" fill="#E7DCC9" /><rect x="422.2222222222222" y="823.3333333333333" width="21.11111111111111" height="63.333333333333485" fill="#E7DCC9" /><rect x="443.33333333333326" y="823.3333333333333" width="63.333333333333485" height="21.11111111111111" fill="#E7DCC9" /><rect x="485.55555555555566" y="844.4444444444443" width="21.11111111111111" height="42.2222222222224" fill="#E7DCC9" /><rect x="443.33333333333326" y="865.5555555555557" width="42.2222222222224" height="21.11111111111111" fill="#c8b69d" /><rect x="443.33333333333326" y="844.4444444444443" width="21.11111111111111" height="21.111111111111313" fill="#c8b69d" /><rect x="464.44444444444434" y="844.4444444444443" width="21.111111111111313" height="21.111111111111313" fill="#c8b69d" /></g><g><rect x="570" y="760" width="190" height="190" fill="#8A6A3D" /><rect x="570" y="760" width="190" height="21.11111111111111" fill="#20303A" /><rect x="738.8888888888889" y="781.1111111111111" width="21.11111111111111" height="168.8888888888889" fill="#20303A" /><rect x="570" y="928.8888888888889" width="168.8888888888889" height="21.11111111111111" fill="#8A6A3D" /><rect x="570" y="781.1111111111111" width="21.11111111111111" height="147.77777777777783" fill="#8A6A3D" /><rect x="591.1111111111111" y="781.1111111111111" width="147.77777777777783" height="21.11111111111111" fill="#8A6A3D" /><rect x="717.7777777777778" y="802.2222222222222" width="21.11111111111111" height="126.66666666666674" fill="#8A6A3D" /><rect x="591.1111111111111" y="907.7777777777778" width="126.66666666666674" height="21.11111111111111" fill="#20303A" /><rect x="591.1111111111111" y="802.2222222222222" width="21.11111111111111" height="105.55555555555566" fill="#20303A" /><rect x="612.2222222222222" y="802.2222222222222" width="105.55555555555566" height="21.11111111111111" fill="#20303A" /><rect x="696.6666666666667" y="823.3333333333333" width="21.11111111111111" height="84.44444444444457" fill="#20303A" /><rect x="612.2222222222222" y="886.6666666666667" width="84.44444444444457" height="21.11111111111111" fill="#8A6A3D" /><rect x="612.2222222222222" y="823.3333333333333" width="21.11111111111111" height="63.333333333333485" fill="#8A6A3D" /><rect x="633.3333333333333" y="823.3333333333333" width="63.333333333333485" height="21.11111111111111" fill="#8A6A3D" /><rect x="675.5555555555557" y="844.4444444444443" width="21.11111111111111" height="42.2222222222224" fill="#8A6A3D" /><rect x="633.3333333333333" y="865.5555555555557" width="42.2222222222224" height="21.11111111111111" fill="#20303A" /><rect x="633.3333333333333" y="844.4444444444443" width="21.11111111111111" height="21.111111111111313" fill="#20303A" /><rect x="654.4444444444443" y="844.4444444444443" width="21.111111111111313" height="21.111111111111313" fill="#20303A" /></g><g><rect x="760" y="760" width="190" height="190" fill="#FAF5EC" /><rect x="760" y="760" width="190" height="21.11111111111111" fill="#8A6A3D" /><rect x="928.8888888888889" y="781.1111111111111" width="21.11111111111111" height="168.8888888888889" fill="#8A6A3D" /><rect x="760" y="928.8888888888889" width="168.8888888888889" height="21.11111111111111" fill="#FAF5EC" /><rect x="760" y="781.1111111111111" width="21.11111111111111" height="147.77777777777783" fill="#FAF5EC" /><rect x="781.1111111111111" y="781.1111111111111" width="147.77777777777783" height="21.11111111111111" fill="#FAF5EC" /><rect x="907.7777777777778" y="802.2222222222222" width="21.11111111111111" height="126.66666666666674" fill="#FAF5EC" /><rect x="781.1111111111111" y="907.7777777777778" width="126.66666666666674" height="21.11111111111111" fill="#8A6A3D" /><rect x="781.1111111111111" y="802.2222222222222" width="21.11111111111111" height="105.55555555555566" fill="#8A6A3D" /><rect x="802.2222222222222" y="802.2222222222222" width="105.55555555555566" height="21.11111111111111" fill="#8A6A3D" /><rect x="886.6666666666667" y="823.3333333333333" width="21.11111111111111" height="84.44444444444457" fill="#8A6A3D" /><rect x="802.2222222222222" y="886.6666666666667" width="84.44444444444457" height="21.11111111111111" fill="#FAF5EC" /><rect x="802.2222222222222" y="823.3333333333333" width="21.11111111111111" height="63.333333333333485" fill="#FAF5EC" /><rect x="823.3333333333333" y="823.3333333333333" width="63.333333333333485" height="21.11111111111111" fill="#FAF5EC" /><rect x="865.5555555555557" y="844.4444444444443" width="21.11111111111111" height="42.2222222222224" fill="#FAF5EC" /><rect x="823.3333333333333" y="865.5555555555557" width="42.2222222222224" height="21.11111111111111" fill="#8A6A3D" /><rect x="823.3333333333333" y="844.4444444444443" width="21.11111111111111" height="21.111111111111313" fill="#8A6A3D" /><rect x="844.4444444444443" y="844.4444444444443" width="21.111111111111313" height="21.111111111111313" fill="#8A6A3D" /></g><g><rect x="950" y="760" width="190" height="190" fill="#20303A" /><rect x="950" y="760" width="190" height="21.11111111111111" fill="#504a3b" /><rect x="1118.888888888889" y="781.1111111111111" width="21.11111111111111" height="168.8888888888889" fill="#504a3b" /><rect x="950" y="928.8888888888889" width="168.8888888888889" height="21.11111111111111" fill="#20303A" /><rect x="950" y="781.1111111111111" width="21.11111111111111" height="147.77777777777783" fill="#20303A" /><rect x="971.1111111111111" y="781.1111111111111" width="147.77777777777783" height="21.11111111111111" fill="#20303A" /><rect x="1097.7777777777778" y="802.2222222222222" width="21.11111111111111" height="126.66666666666674" fill="#20303A" /><rect x="971.1111111111111" y="907.7777777777778" width="126.66666666666674" height="21.11111111111111" fill="#504a3b" /><rect x="971.1111111111111" y="802.2222222222222" width="21.11111111111111" height="105.55555555555566" fill="#504a3b" /><rect x="992.2222222222222" y="802.2222222222222" width="105.55555555555566" height="21.11111111111111" fill="#504a3b" /><rect x="1076.6666666666667" y="823.3333333333333" width="21.11111111111111" height="84.44444444444457" fill="#504a3b" /><rect x="992.2222222222222" y="886.6666666666667" width="84.44444444444457" height="21.11111111111111" fill="#20303A" /><rect x="992.2222222222222" y="823.3333333333333" width="21.11111111111111" height="63.333333333333485" fill="#20303A" /><rect x="1013.3333333333333" y="823.3333333333333" width="63.333333333333485" height="21.11111111111111" fill="#20303A" /><rect x="1055.5555555555557" y="844.4444444444443" width="21.11111111111111" height="42.2222222222224" fill="#20303A" /><rect x="1013.3333333333333" y="865.5555555555557" width="42.2222222222224" height="21.11111111111111" fill="#504a3b" /><rect x="1013.3333333333333" y="844.4444444444443" width="21.11111111111111" height="21.111111111111313" fill="#504a3b" /><rect x="1034.4444444444443" y="844.4444444444443" width="21.111111111111313" height="21.111111111111313" fill="#504a3b" /></g>
    
    <defs>
      <linearGradient id="scrim" x1="0" y1="0" x2="0" y2="1">
        <stop offset="0%" stop-color="#20303A" stop-opacity="0" />
        <stop offset="100%" stop-color="#20303A" stop-opacity="0.82" />
      </linearGradient>
    </defs>
    <rect x="0" y="410" width="800" height="190" fill="url(#scrim)" />
    <text
      x="32" y="554"
      font-family="Inter, ui-sans-serif, system-ui, -apple-system, 'Segoe UI', sans-serif"
      font-size="42" font-weight="700" fill="#fffdfa"
      style="letter-spacing: 0.01em;"
    >Retreat Facilities</text>
  
  </svg>